{
  "accessors": [
    {
      "bufferView": 2,
      "componentType": 5126,
      "count": 96,
      "max": [
        39.350006103515625,
        19.700000762939453,
        3.0000004768371582
      ],
      "min": [
        -39.349998474121094,
        -19.700000762939453,
        -4.76837158203125e-07
      ],
      "type": "VEC3"
    },
    {
      "bufferView": 2,
      "byteOffset": 1152,
      "componentType": 5126,
      "count": 96,
      "max": [
        1,
        1,
        1
      ],
      "min": [
        -1,
        -1,
        -1
      ],
      "type": "VEC3"
    },
    {
      "bufferView": 3,
      "componentType": 5126,
      "count": 96,
      "max": [
        1,
        1,
        1.6665703697071876e-06,
        1
      ],
      "min": [
        -1,
        -1,
        -1.6665629800627357e-06,
        1
      ],
      "type": "VEC4"
    },
    {
      "bufferView": 1,
      "componentType": 5126,
      "count": 96,
      "max": [
        1,
        1
      ],
      "min": [
        -5.9604644775390625e-08,
        0
      ],
      "type": "VEC2"
    },
    {
      "bufferView": 0,
      "componentType": 5125,
      "count": 324,
      "max": [
        95
      ],
      "min": [
        0
      ],
      "type": "SCALAR"
    },
    {
      "bufferView": 2,
      "byteOffset": 2304,
      "componentType": 5126,
      "count": 11777,
      "max": [
        19.810695648193359,
        19.492666244506836,
        0.10734796524047852
      ],
      "min": [
        -19.759744644165039,
        -7.0157947540283203,
        -62.05462646484375
      ],
      "type": "VEC3"
    },
    {
      "bufferView": 2,
      "byteOffset": 143628,
      "componentType": 5126,
      "count": 11777,
      "max": [
        1,
        1,
        1
      ],
      "min": [
        -1,
        -1,
        -1
      ],
      "type": "VEC3"
    },
    {
      "bufferView": 3,
      "byteOffset": 1536,
      "componentType": 5126,
      "count": 11777,
      "max": [
        1,
        1,
        1,
        1
      ],
      "min": [
        -1,
        -1,
        -1,
        -1
      ],
      "type": "VEC4"
    },
    {
      "bufferView": 1,
      "byteOffset": 768,
      "componentType": 5126,
      "count": 11777,
      "max": [
        1.8789129257202148,
        1.195497989654541
      ],
      "min": [
        -0.87891292572021484,
        -0.19549800455570221
      ],
      "type": "VEC2"
    },
    {
      "bufferView": 0,
      "byteOffset": 1296,
      "componentType": 5125,
      "count": 57948,
      "max": [
        11776
      ],
      "min": [
        0
      ],
      "type": "SCALAR"
    }
  ],
  "asset": {
    "extras": {
      "author": "Zuo Modern (https://sketchfab.com/zuo)",
      "license": "CC-BY-NC-ND-4.0 (http://creativecommons.org/licenses/by-nc-nd/4.0/)",
      "source": "https://sketchfab.com/models/529abb68b741454e89b48406806bb827",
      "title": "Ford Dining Table Cement & Natural - 703594"
    },
    "generator": "Sketchfab-3.34.6",
    "version": "2.0"
  },
  "bufferViews": [
    {
      "buffer": 0,
      "byteLength": 233088,
      "byteOffset": 0,
      "name": "floatBufferViews",
      "target": 34963
    },
    {
      "buffer": 0,
      "byteLength": 94984,
      "byteOffset": 233088,
      "byteStride": 8,
      "name": "floatBufferViews",
      "target": 34962
    },
    {
      "buffer": 0,
      "byteLength": 284952,
      "byteOffset": 328072,
      "byteStride": 12,
      "name": "floatBufferViews",
      "target": 34962
    },
    {
      "buffer": 0,
      "byteLength": 189968,
      "byteOffset": 613024,
      "byteStride": 16,
      "name": "floatBufferViews",
      "target": 34962
    }
  ],
  "buffers": [
    {
      "byteLength": 802992,
      "uri": "scene.bin"
    }
  ],
  "images": [
    {
      "uri": "textures/01_-_Default4E_baseColor.jpeg"
    },
    {
      "uri": "textures/Material_24701_baseColor.png"
    }
  ],
  "materials": [
    {
      "doubleSided": true,
      "name": "01_-_Default4E",
      "pbrMetallicRoughness": {
        "baseColorFactor": [
          1,
          1,
          1,
          1
        ],
        "baseColorTexture": {
          "index": 0,
          "texCoord": 0
        },
        "metallicFactor": 0,
        "roughnessFactor": 0.28480088339999998
      }
    },
    {
      "doubleSided": true,
      "name": "Material_24701",
      "pbrMetallicRoughness": {
        "baseColorFactor": [
          1,
          1,
          1,
          1
        ],
        "baseColorTexture": {
          "index": 1,
          "texCoord": 0
        },
        "metallicFactor": 0,
        "roughnessFactor": 0.35398327330000001
      }
    }
  ],
  "meshes": [
    {
      "name": "703594_01 - Default4E_0",
      "primitives": [
        {
          "attributes": {
            "NORMAL": 1,
            "POSITION": 0,
            "TANGENT": 2,
            "TEXCOORD_0": 3
          },
          "indices": 4,
          "material": 0,
          "mode": 4
        }
      ]
    },
    {
      "name": "Cylinder005_Material #24701_0",
      "primitives": [
        {
          "attributes": {
            "NORMAL": 6,
            "POSITION": 5,
            "TANGENT": 7,
            "TEXCOORD_0": 8
          },
          "indices": 9,
          "material": 1,
          "mode": 4
        }
      ]
    }
  ],
  "nodes": [
    {
      "children": [
        1
      ],
      "name": "RootNode (gltf orientation matrix)",
      "rotation": [
        -0.70710678118654746,
        -0,
        -0,
        0.70710678118654757
      ]
    },
    {
      "children": [
        2
      ],
      "name": "RootNode (model correction matrix)"
    },
    {
      "children": [
        3
      ],
      "matrix": [
        1,
        0,
        0,
        0,
        0,
        0,
        1,
        0,
        0,
        -1,
        0,
        0,
        0,
        0,
        0,
        1
      ],
      "name": "cab866dd4fbc4138a54eea6078821137.fbx"
    },
    {
      "children": [
        4,
        6
      ],
      "name": "RootNode"
    },
    {
      "children": [
        5
      ],
      "matrix": [
        -1,
        -0,
        -0,
        -0,
        -0,
        -1.0410971073016029e-06,
        -0.99999999999945799,
        -0,
        -0,
        0.99999999999945799,
        -1.0410971073016029e-06,
        -0,
        3.9796877899789251e-06,
        26.5,
        -2.4046748876571655e-06,
        1
      ],
      "name": "703594"
    },
    {
      "mesh": 0,
      "name": "703594_01 - Default4E_0"
    },
    {
      "children": [
        7
      ],
      "matrix": [
        8.823233310639722e-08,
        -1.6543612251060553e-24,
        0.99999999999999611,
        0,
        -1.1924880577270672e-08,
        0.99999999999999989,
        1.0521600377477849e-15,
        0,
        -0.99999999999999611,
        -1.1924880577270719e-08,
        8.823233310639722e-08,
        0,
        -30.958234786987305,
        7.0157942771911621,
        0.00051664561033248901,
        1
      ],
      "name": "Cylinder005"
    },
    {
      "mesh": 1,
      "name": "Cylinder005_Material #24701_0"
    }
  ],
  "samplers": [
    {
      "magFilter": 9729,
      "minFilter": 9987,
      "wrapS": 10497,
      "wrapT": 10497
    }
  ],
  "scene": 0,
  "scenes": [
    {
      "name": "OSG_Scene",
      "nodes": [
        0
      ]
    }
  ],
  "textures": [
    {
      "sampler": 0,
      "source": 0
    },
    {
      "sampler": 0,
      "source": 1
    }
  ]
}

