{
   "accessors" : [
      {
         "bufferView" : 0,
         "byteOffset" : 0,
         "componentType" : 5123,
         "count" : 576,
         "max" : [ 383 ],
         "min" : [ 0 ],
         "name" : "buffer-0-group-0-mesh-0-indices",
         "type" : "SCALAR"
      },
      {
         "bufferView" : 2,
         "byteOffset" : 0,
         "componentType" : 5126,
         "count" : 384,
         "max" : [ 0.1499750018119812, 0.1499750018119812, 0.001000000047497451 ],
         "min" : [ -0.1499750018119812, -0.1499750018119812, -1.253860025789838e-13 ],
         "name" : "buffer-0-group-0-mesh-0-position",
         "type" : "VEC3"
      },
      {
         "bufferView" : 2,
         "byteOffset" : 4608,
         "componentType" : 5126,
         "count" : 384,
         "max" : [ 0.9998509883880615, 0.9998509883880615, 8.36774009457808e-13 ],
         "min" : [ -0.9998509883880615, -0.9998509883880615, -8.36774009457808e-13 ],
         "name" : "buffer-0-group-0-mesh-0-normal",
         "type" : "VEC3"
      },
      {
         "bufferView" : 1,
         "byteOffset" : 0,
         "componentType" : 5126,
         "count" : 384,
         "max" : [ 0.0393701009452343, 0.3862389922142029 ],
         "min" : [ -0.0393701009452343, -0.3862389922142029 ],
         "name" : "buffer-0-group-0-mesh-0-texcoord",
         "type" : "VEC2"
      },
      {
         "bufferView" : 0,
         "byteOffset" : 1152,
         "componentType" : 5123,
         "count" : 1008,
         "max" : [ 335 ],
         "min" : [ 0 ],
         "name" : "buffer-0-group-1-mesh-0-indices",
         "type" : "SCALAR"
      },
      {
         "bufferView" : 2,
         "byteOffset" : 9216,
         "componentType" : 5126,
         "count" : 336,
         "max" : [ 0.1499750018119812, 0.1499750018119812, 0.001000000047497451 ],
         "min" : [ -0.1499750018119812, -0.1499750018119812, -1.253860025789838e-13 ],
         "name" : "buffer-0-group-1-mesh-0-position",
         "type" : "VEC3"
      },
      {
         "bufferView" : 2,
         "byteOffset" : 13248,
         "componentType" : 5126,
         "count" : 336,
         "max" : [ 8.522089826358548e-13, 1.090439977218969e-14, 1 ],
         "min" : [ -8.522089826358548e-13, -1.090439977218969e-14, -1 ],
         "name" : "buffer-0-group-1-mesh-0-normal",
         "type" : "VEC3"
      },
      {
         "bufferView" : 1,
         "byteOffset" : 3072,
         "componentType" : 5126,
         "count" : 336,
         "max" : [ 0.962943971157074, 0 ],
         "min" : [ -80.97779846191406, -1.960530042648315 ],
         "name" : "buffer-0-group-1-mesh-0-texcoord",
         "type" : "VEC2"
      },
      {
         "bufferView" : 0,
         "byteOffset" : 3168,
         "componentType" : 5123,
         "count" : 1008,
         "max" : [ 335 ],
         "min" : [ 0 ],
         "name" : "buffer-0-group-2-mesh-0-indices",
         "type" : "SCALAR"
      },
      {
         "bufferView" : 2,
         "byteOffset" : 17280,
         "componentType" : 5126,
         "count" : 336,
         "max" : [ 0.05000000074505806, 0.05000000074505806, 0.001000000047497451 ],
         "min" : [ -0.05000000074505806, -0.05000000074505806, -4.164390051330721e-14 ],
         "name" : "buffer-0-group-2-mesh-0-position",
         "type" : "VEC3"
      },
      {
         "bufferView" : 2,
         "byteOffset" : 21312,
         "componentType" : 5126,
         "count" : 336,
         "max" : [ 8.362950089380039e-13, 3.409139900175003e-15, 1 ],
         "min" : [ -8.362950089380039e-13, -3.409139900175003e-15, -1 ],
         "name" : "buffer-0-group-2-mesh-0-normal",
         "type" : "VEC3"
      },
      {
         "bufferView" : 1,
         "byteOffset" : 5760,
         "componentType" : 5126,
         "count" : 336,
         "max" : [ 1.968500018119812, 1.968500018119812 ],
         "min" : [ -1.968500018119812, -1.968500018119812 ],
         "name" : "buffer-0-group-2-mesh-0-texcoord",
         "type" : "VEC2"
      }
   ],
   "asset" : {
      "generator" : "Obj2GltfConverter",
      "version" : "2.0"
   },
   "bufferViews" : [
      {
         "buffer" : 0,
         "byteLength" : 5184,
         "byteOffset" : 0,
         "name" : "buffer-0-bufferview-ushort",
         "target" : 34963
      },
      {
         "buffer" : 0,
         "byteLength" : 8448,
         "byteOffset" : 5184,
         "byteStride" : 8,
         "name" : "buffer-0-bufferview-vec2",
         "target" : 34962
      },
      {
         "buffer" : 0,
         "byteLength" : 25344,
         "byteOffset" : 13632,
         "byteStride" : 12,
         "name" : "buffer-0-bufferview-vec3",
         "target" : 34962
      },
      {
         "buffer" : 0,
         "byteLength" : 1,
         "byteOffset" : 0,
         "name" : "buffer-0-bufferview-vec4"
      }
   ],
   "buffers" : [
      {
         "byteLength" : 38976,
         "name" : "buffer-0",
         "uri" : "vinyl-record.bin"
      }
   ],
   "images" : [
      {
         "mimeType" : "image/png",
         "name" : "_Color_009_2-diffuse-image",
         "uri" : "_Color_009_2.png"
      }
   ],
   "materials" : [
      {
         "alphaMode" : "OPAQUE",
         "doubleSided" : true,
         "name" : "_Color_009_3",
         "pbrMetallicRoughness" : {
            "baseColorFactor" : [ 0, 0, 0, 1 ],
            "metallicFactor" : 0,
            "roughnessFactor" : 0.9699476628648295
         }
      },
      {
         "alphaMode" : "OPAQUE",
         "doubleSided" : true,
         "name" : "_Color_009_2",
         "pbrMetallicRoughness" : {
            "baseColorFactor" : [ 0.423529, 0.415686, 0.411765, 1 ],
            "baseColorTexture" : {
               "index" : 0,
               "texCoord" : 0
            },
            "metallicFactor" : 0,
            "roughnessFactor" : 0.9699476628648295
         }
      },
      {
         "alphaMode" : "OPAQUE",
         "doubleSided" : true,
         "name" : "Color_M00",
         "pbrMetallicRoughness" : {
            "baseColorFactor" : [ 1, 1, 1, 1 ],
            "metallicFactor" : 0,
            "roughnessFactor" : 0.9699476628648295
         }
      }
   ],
   "meshes" : [
      {
         "name" : "buffer-0-mesh-0",
         "primitives" : [
            {
               "attributes" : {
                  "NORMAL" : 2,
                  "POSITION" : 1,
                  "TEXCOORD_0" : 3
               },
               "indices" : 0,
               "material" : 0,
               "mode" : 4
            },
            {
               "attributes" : {
                  "NORMAL" : 6,
                  "POSITION" : 5,
                  "TEXCOORD_0" : 7
               },
               "indices" : 4,
               "material" : 1,
               "mode" : 4
            },
            {
               "attributes" : {
                  "NORMAL" : 10,
                  "POSITION" : 9,
                  "TEXCOORD_0" : 11
               },
               "indices" : 8,
               "material" : 2,
               "mode" : 4
            }
         ]
      }
   ],
   "nodes" : [
      {
         "mesh" : 0,
         "name" : "node-0"
      }
   ],
   "samplers" : [
      {
         "name" : "_Color_009_2-diffuse-sampler",
         "wrapS" : 10497,
         "wrapT" : 10497
      }
   ],
   "scenes" : [
      {
         "name" : "scene-0",
         "nodes" : [ 0 ]
      }
   ],
   "textures" : [
      {
         "name" : "_Color_009_2-diffuse-texture",
         "sampler" : 0,
         "source" : 0
      }
   ]
}
